<svg xmlns="http://www.w3.org/2000/svg" viewBox="0 0 341.61 394.45"><defs><style>.a{fill:#aac4e6;stroke:#000;stroke-width:16px;}.a,.b,.c,.d,.e,.f,.h,.i,.j,.k,.l,.m{stroke-miterlimit:10;}.b,.c{fill:none;}.b,.c,.h{stroke:#030202;}.b{stroke-width:1.01px;}.c{stroke-width:3px;}.d{fill:#c9def3;stroke:#0b0605;stroke-width:4.34px;}.e{fill:#feffff;}.e,.f{stroke:#070404;stroke-width:5px;}.f{fill:#110c09;}.g{fill:#768cc7;}.h{fill:#120f0a;stroke-width:1.12px;}.i{fill:#90adda;}.i,.l,.m{stroke:#231f20;}.j{fill:#2c2d82;stroke:#080604;}.k{fill:#495aa8;stroke:#020203;stroke-width:1.94px;}.l{fill:#fff;stroke-width:0.87px;}.m{fill:#030202;stroke-width:0.66px;}.n{fill:#e8f1fa;}.o{font-size:130px;}.o,.p{fill:#231f20;font-family:Verdana;}.p{font-size:63px;}</style></defs><polygon class="a" points="170.8 9.24 8 103.23 8 291.22 170.8 385.22 333.61 291.22 333.61 103.23 170.8 9.24"/><polygon class="b" points="171.2 26.67 22.9 112.29 22.51 282.85 170.41 367.78 318.71 282.17 319.1 111.61 171.2 26.67"/><polygon class="c" points="171.17 37.41 32.22 117.64 31.85 277.45 170.44 357.04 309.39 276.82 309.76 117 171.17 37.41"/><ellipse class="d" cx="195.14" cy="160.17" rx="80.66" ry="95.69"/><ellipse class="e" cx="169.42" cy="116.8" rx="19.32" ry="26.11"/><ellipse class="f" cx="165.95" cy="124.5" rx="11.02" ry="15.4"/><ellipse class="e" cx="221.63" cy="116.8" rx="19.32" ry="26.11"/><ellipse class="f" cx="218.16" cy="124.5" rx="11.02" ry="15.4"/><ellipse class="g" cx="192.73" cy="199" rx="29.78" ry="45.84"/><path class="h" d="M195.45,384.59h0c14.34,0,100.34-45.12,113.47-57.34V285.81a26,26,0,0,0-26-26H171.57a26,26,0,0,0-26,26v57.06C145.6,357.21,181.11,384.59,195.45,384.59Z" transform="translate(-29.5 -2.18)"/><path class="i" d="M191.26,264.72c-5.31,6-.67,18,5.7,33.85,9.55,23.79,18,44.94,30.08,44.94,12.43,0,21.27-22.56,29.7-44,5.79-14.79,10.93-27.88,5.17-34.3-4.65-5.17-11.81-.94-34.61-1C203.59,264.07,195.94,259.44,191.26,264.72Z" transform="translate(-29.5 -2.18)"/><circle class="j" cx="196.21" cy="285.77" r="3.8"/><circle class="j" cx="196.21" cy="305.42" r="3.8"/><circle class="j" cx="196.21" cy="325.07" r="3.8"/><path class="k" d="M187.44,286.72c2.91,2.82,8.72.36,16.43-3,11.55-5,21.81-9.55,21.82-15.91,0-6.58-10.95-11.26-21.38-15.72-7.18-3.06-13.54-5.78-16.65-2.73-2.51,2.45-.46,6.24-.5,18.31C187.12,280.2,184.87,284.25,187.44,286.72Z" transform="translate(-29.5 -2.18)"/><path class="k" d="M263.94,249.24c-2.92-2.81-8.73-.36-16.44,3-11.55,5.05-21.81,9.54-21.81,15.91,0,6.58,10.95,11.26,21.37,15.71,7.18,3.07,13.54,5.78,16.66,2.74,2.51-2.46.45-6.25.49-18.31C264.25,255.76,266.5,251.71,263.94,249.24Z" transform="translate(-29.5 -2.18)"/><rect class="l" x="176.31" y="158.36" width="8.48" height="18.42" rx="4.24"/><rect class="l" x="184.34" y="158.23" width="8.48" height="18.42" rx="4.24"/><rect class="l" x="192.95" y="158.23" width="8.48" height="18.42" rx="4.24"/><rect class="l" x="176.68" y="222.29" width="8.48" height="18.42" rx="4.24"/><rect class="l" x="184.71" y="222.17" width="8.48" height="18.42" rx="4.24"/><rect class="l" x="193.32" y="222.17" width="8.48" height="18.42" rx="4.24"/><rect class="l" x="201.71" y="158.36" width="8.48" height="18.42" rx="4.24"/><rect class="l" x="202.08" y="222.29" width="8.48" height="18.42" rx="4.24"/><rect class="m" x="34.22" y="163.54" width="122.31" height="3.83"/><rect class="m" x="34.22" y="226.55" width="122.31" height="3.83"/><rect class="n" x="34.22" y="167.37" width="122.31" height="59.18"/><text class="o" transform="translate(152.37 246.83)">0</text><text class="p" transform="translate(30.41 221.17)"><tspan xml:space="preserve">bibli   gR</tspan></text></svg>